<?xml version="1.0" encoding="UTF-8" standalone="no"?>
<svg
   xmlns:dc="http://purl.org/dc/elements/1.1/"
   xmlns:cc="http://creativecommons.org/ns#"
   xmlns:rdf="http://www.w3.org/1999/02/22-rdf-syntax-ns#"
   xmlns:svg="http://www.w3.org/2000/svg"
   xmlns="http://www.w3.org/2000/svg"
   height="80"
   width="80"
   xml:space="preserve"
   viewBox="0 0 1000 1000"
   y="0px"
   x="0px"
   id="Capa_1"
   version="1.1">
<style type="text/css">
   @-webkit-keyframes bounceInDown {
  from,
  60%,
  75%,
  90%,
  to {
    -webkit-animation-timing-function: cubic-bezier(0.215, 0.61, 0.355, 1);
    animation-timing-function: cubic-bezier(0.215, 0.61, 0.355, 1);
  }

  0% {
    opacity: 0;
    -webkit-transform: translate3d(0, -3000px, 0);
    transform: translate3d(0, -3000px, 0);
  }

  60% {
    opacity: 1;
    -webkit-transform: translate3d(0, 25px, 0);
    transform: translate3d(0, 25px, 0);
  }

  75% {
    -webkit-transform: translate3d(0, -10px, 0);
    transform: translate3d(0, -10px, 0);
  }

  90% {
    -webkit-transform: translate3d(0, 5px, 0);
    transform: translate3d(0, 5px, 0);
  }

  to {
    -webkit-transform: translate3d(0, 0, 0);
    transform: translate3d(0, 0, 0);
  }
}

@keyframes bounceInDown {
  from,
  60%,
  75%,
  90%,
  to {
    -webkit-animation-timing-function: cubic-bezier(0.215, 0.61, 0.355, 1);
    animation-timing-function: cubic-bezier(0.215, 0.61, 0.355, 1);
  }

  0% {
    opacity: 0;
    -webkit-transform: translate3d(0, -3000px, 0);
    transform: translate3d(0, -3000px, 0);
  }

  60% {
    opacity: 1;
    -webkit-transform: translate3d(0, 25px, 0);
    transform: translate3d(0, 25px, 0);
  }

  75% {
    -webkit-transform: translate3d(0, -10px, 0);
    transform: translate3d(0, -10px, 0);
  }

  90% {
    -webkit-transform: translate3d(0, 5px, 0);
    transform: translate3d(0, 5px, 0);
  }

  to {
    -webkit-transform: translate3d(0, 0, 0);
    transform: translate3d(0, 0, 0);
  }
}
.smile {
  -webkit-animation-name: bounceInDown;
  animation-name: bounceInDown;
  animation-duration: 2s; 
   animation-direction: alternate;
  animation-iteration-count: infinite;
  width:50px;
  height:50px;
}
  </style>

<g class="smile"
   transform="scale(0.1953125)"
   id="g138"><g
     id="g113"><path
       id="circle61"
       d="M 512,256 A 256,256 0 0 1 256,512 256,256 0 0 1 0,256.0000000000001 256,256 0 0 1 256,0 256,256 0 0 1 512,256 Z"
       style="fill:#ffd93b" /></g><path
     style="fill:#3e4347"
     d="M 256,420.544 C 181.136,420.544 115.904,369.84 97.376,297.264 c -1.456,-5.712 1.98399999999998,-11.52 7.696,-12.976 5.68,-1.488 11.504,1.984 12.96,7.696 16.128,63.1360000000001 72.848,107.232 137.952,107.232 65.104,0 121.84,-44.096 137.952,-107.232 1.44,-5.7119999999998 7.248,-9.184 12.976,-7.696 5.712,1.456 9.152,7.264 7.6960000000001,12.976 C 396.096,369.84 330.864,420.544 256,420.544 Z"
     id="path63" /><path
     style="fill:#f4c534"
     d="M 512,256 C 512,397.44 397.36,512 256,512 175.52,512 103.68,474.88 56.72,416.72 100.64,452.24 156.56,473.4400000000001 217.44,473.4400000000001 c 141.36,0 256,-114.56 256,-256 0,-60.88 -21.2,-116.8 -56.72,-160.72000000000008 C 474.8,103.68 512,175.52 512,256 Z"
     id="path65" /><path
     id="ellipse67"
     d="m 212.560001373291,220.3040008544922 a 39.23199844360352,46.62400054931642 0 0 1 -39.2319984436035,46.6240005493164 39.23199844360352,46.62400054931642 0 0 1 -39.2319984436035,-46.6240005493164 39.23199844360352,46.62400054931642 0 0 1 39.2319984436035,-46.6240005493164 39.23199844360352,46.62400054931642 0 0 1 39.2319984436035,46.6240005493164 z"
     style="fill:#3e4347" /><path
     style="fill:#5a5f63"
     d="m 191.024,210.272 c -3.056,2.4 -8.08,1.216 -11.296,-2.688 -3.216,-3.904 -3.376,-9.136 -0.32,-11.536 3.04,-2.512 8.08,-1.328 11.28,2.576 3.232,4.016 3.264,9.152 0.336,11.648 z"
     id="path69" /><path
     id="ellipse71"
     d="m 377.9519996643066,220.3040008544922 a 39.23199844360352,46.62400054931642 0 0 1 -39.2319984436035,46.6240005493164 39.23199844360352,46.62400054931642 0 0 1 -39.2319984436035,-46.6240005493164 39.23199844360352,46.62400054931642 0 0 1 39.2319984436035,-46.6240005493164 39.23199844360352,46.62400054931642 0 0 1 39.2319984436035,46.6240005493164 z"
     style="fill:#3e4347" /><path
     style="fill:#5a5f63"
     d="m 356.384,210.272 c -3.056,2.4 -8.08,1.216 -11.296,-2.688 -3.216,-3.904 -3.3759999999999,-9.136 -0.3200000000001,-11.536 3.0400000000001,-2.512 8.0640000000001,-1.328 11.28,2.576 3.232,4.016 3.264,9.152 0.3360000000001,11.648 z"
     id="path73" /><g
     id="g75">
</g></g>
</svg>